<mxfile host="app.diagrams.net" agent="Mozilla/5.0 (Windows NT 10.0; Win64; x64) AppleWebKit/537.36 (KHTML, like Gecko) Chrome/123.0.0.0 Safari/537.36" version="27.1.1">
  <diagram name="Page-1" id="nsK7PJsPgjiCxNsB_iXH">
    <mxGraphModel dx="1018" dy="610" grid="1" gridSize="10" guides="1" tooltips="1" connect="1" arrows="1" fold="1" page="1" pageScale="1" pageWidth="850" pageHeight="1100" math="0" shadow="0">
      <root>
        <mxCell id="0" />
        <mxCell id="1" parent="0" />
        <mxCell id="d8FiVwsgWfd_kgE403dX-1" value="Initialize" style="ellipse;whiteSpace=wrap;html=1;aspect=fixed;" parent="1" vertex="1">
          <mxGeometry x="360" y="150" width="100" height="100" as="geometry" />
        </mxCell>
        <mxCell id="ACGiItF6_wGYtYrXctIy-1" value="Wait" style="ellipse;whiteSpace=wrap;html=1;aspect=fixed;" vertex="1" parent="1">
          <mxGeometry x="560" y="330" width="100" height="100" as="geometry" />
        </mxCell>
        <mxCell id="ACGiItF6_wGYtYrXctIy-2" value="Read" style="ellipse;whiteSpace=wrap;html=1;aspect=fixed;" vertex="1" parent="1">
          <mxGeometry x="360" y="510" width="100" height="100" as="geometry" />
        </mxCell>
        <mxCell id="ACGiItF6_wGYtYrXctIy-3" value="Send" style="ellipse;whiteSpace=wrap;html=1;aspect=fixed;" vertex="1" parent="1">
          <mxGeometry x="160" y="330" width="100" height="100" as="geometry" />
        </mxCell>
        <mxCell id="ACGiItF6_wGYtYrXctIy-4" value="Error" style="ellipse;whiteSpace=wrap;html=1;aspect=fixed;" vertex="1" parent="1">
          <mxGeometry x="360" y="330" width="100" height="100" as="geometry" />
        </mxCell>
        <mxCell id="ACGiItF6_wGYtYrXctIy-5" value="" style="endArrow=classic;html=1;rounded=0;exitX=1;exitY=1;exitDx=0;exitDy=0;entryX=0;entryY=0;entryDx=0;entryDy=0;" edge="1" parent="1" source="d8FiVwsgWfd_kgE403dX-1" target="ACGiItF6_wGYtYrXctIy-1">
          <mxGeometry width="50" height="50" relative="1" as="geometry">
            <mxPoint x="550" y="240" as="sourcePoint" />
            <mxPoint x="600" y="190" as="targetPoint" />
          </mxGeometry>
        </mxCell>
        <mxCell id="ACGiItF6_wGYtYrXctIy-14" value="Initializations&lt;div&gt;sucessful&lt;/div&gt;" style="edgeLabel;html=1;align=center;verticalAlign=middle;resizable=0;points=[];" vertex="1" connectable="0" parent="ACGiItF6_wGYtYrXctIy-5">
          <mxGeometry x="-0.1806" y="-1" relative="1" as="geometry">
            <mxPoint as="offset" />
          </mxGeometry>
        </mxCell>
        <mxCell id="ACGiItF6_wGYtYrXctIy-6" value="" style="endArrow=classic;html=1;rounded=0;exitX=0;exitY=1;exitDx=0;exitDy=0;entryX=1;entryY=0;entryDx=0;entryDy=0;" edge="1" parent="1" source="ACGiItF6_wGYtYrXctIy-1" target="ACGiItF6_wGYtYrXctIy-2">
          <mxGeometry width="50" height="50" relative="1" as="geometry">
            <mxPoint x="570" y="580" as="sourcePoint" />
            <mxPoint x="620" y="530" as="targetPoint" />
          </mxGeometry>
        </mxCell>
        <mxCell id="ACGiItF6_wGYtYrXctIy-16" value="Time condition&lt;div&gt;met&lt;/div&gt;" style="edgeLabel;html=1;align=center;verticalAlign=middle;resizable=0;points=[];" vertex="1" connectable="0" parent="ACGiItF6_wGYtYrXctIy-6">
          <mxGeometry x="-0.1204" relative="1" as="geometry">
            <mxPoint as="offset" />
          </mxGeometry>
        </mxCell>
        <mxCell id="ACGiItF6_wGYtYrXctIy-7" value="" style="endArrow=classic;html=1;rounded=0;exitX=0;exitY=0;exitDx=0;exitDy=0;entryX=1;entryY=1;entryDx=0;entryDy=0;" edge="1" parent="1" source="ACGiItF6_wGYtYrXctIy-2" target="ACGiItF6_wGYtYrXctIy-3">
          <mxGeometry width="50" height="50" relative="1" as="geometry">
            <mxPoint x="210" y="550" as="sourcePoint" />
            <mxPoint x="260" y="500" as="targetPoint" />
          </mxGeometry>
        </mxCell>
        <mxCell id="ACGiItF6_wGYtYrXctIy-18" value="All samples&lt;div&gt;read&lt;/div&gt;" style="edgeLabel;html=1;align=center;verticalAlign=middle;resizable=0;points=[];" vertex="1" connectable="0" parent="ACGiItF6_wGYtYrXctIy-7">
          <mxGeometry x="-0.0787" relative="1" as="geometry">
            <mxPoint as="offset" />
          </mxGeometry>
        </mxCell>
        <mxCell id="ACGiItF6_wGYtYrXctIy-8" value="" style="endArrow=classic;html=1;rounded=0;exitX=0.5;exitY=1;exitDx=0;exitDy=0;entryX=0.5;entryY=0;entryDx=0;entryDy=0;" edge="1" parent="1" source="d8FiVwsgWfd_kgE403dX-1" target="ACGiItF6_wGYtYrXctIy-4">
          <mxGeometry width="50" height="50" relative="1" as="geometry">
            <mxPoint x="290" y="300" as="sourcePoint" />
            <mxPoint x="340" y="250" as="targetPoint" />
          </mxGeometry>
        </mxCell>
        <mxCell id="ACGiItF6_wGYtYrXctIy-13" value="I2C initfailed&lt;div&gt;or sensor init failed&lt;/div&gt;" style="edgeLabel;html=1;align=center;verticalAlign=middle;resizable=0;points=[];" vertex="1" connectable="0" parent="ACGiItF6_wGYtYrXctIy-8">
          <mxGeometry x="-0.2905" y="-1" relative="1" as="geometry">
            <mxPoint as="offset" />
          </mxGeometry>
        </mxCell>
        <mxCell id="ACGiItF6_wGYtYrXctIy-9" value="" style="endArrow=classic;html=1;rounded=0;exitX=0.5;exitY=0;exitDx=0;exitDy=0;entryX=0.5;entryY=1;entryDx=0;entryDy=0;" edge="1" parent="1" source="ACGiItF6_wGYtYrXctIy-2" target="ACGiItF6_wGYtYrXctIy-4">
          <mxGeometry width="50" height="50" relative="1" as="geometry">
            <mxPoint x="520" y="600" as="sourcePoint" />
            <mxPoint x="570" y="550" as="targetPoint" />
          </mxGeometry>
        </mxCell>
        <mxCell id="ACGiItF6_wGYtYrXctIy-19" value="Sensor reads&lt;div&gt;failed&lt;/div&gt;" style="edgeLabel;html=1;align=center;verticalAlign=middle;resizable=0;points=[];" vertex="1" connectable="0" parent="ACGiItF6_wGYtYrXctIy-9">
          <mxGeometry x="-0.0095" y="-1" relative="1" as="geometry">
            <mxPoint as="offset" />
          </mxGeometry>
        </mxCell>
        <mxCell id="ACGiItF6_wGYtYrXctIy-10" value="" style="endArrow=classic;html=1;rounded=0;exitX=1;exitY=0.5;exitDx=0;exitDy=0;entryX=0.5;entryY=1;entryDx=0;entryDy=0;curved=1;" edge="1" parent="1" source="ACGiItF6_wGYtYrXctIy-2" target="ACGiItF6_wGYtYrXctIy-1">
          <mxGeometry width="50" height="50" relative="1" as="geometry">
            <mxPoint x="540" y="560" as="sourcePoint" />
            <mxPoint x="590" y="510" as="targetPoint" />
            <Array as="points">
              <mxPoint x="570" y="530" />
            </Array>
          </mxGeometry>
        </mxCell>
        <mxCell id="ACGiItF6_wGYtYrXctIy-17" value="Not enough&lt;div&gt;samples&lt;/div&gt;" style="edgeLabel;html=1;align=center;verticalAlign=middle;resizable=0;points=[];" vertex="1" connectable="0" parent="ACGiItF6_wGYtYrXctIy-10">
          <mxGeometry x="0.2086" y="17" relative="1" as="geometry">
            <mxPoint as="offset" />
          </mxGeometry>
        </mxCell>
        <mxCell id="ACGiItF6_wGYtYrXctIy-11" value="" style="endArrow=classic;html=1;rounded=0;exitX=1;exitY=0;exitDx=0;exitDy=0;entryX=0;entryY=0;entryDx=0;entryDy=0;curved=1;" edge="1" parent="1" source="ACGiItF6_wGYtYrXctIy-3" target="ACGiItF6_wGYtYrXctIy-1">
          <mxGeometry width="50" height="50" relative="1" as="geometry">
            <mxPoint x="230" y="300" as="sourcePoint" />
            <mxPoint x="280" y="250" as="targetPoint" />
            <Array as="points">
              <mxPoint x="410" y="270" />
            </Array>
          </mxGeometry>
        </mxCell>
        <mxCell id="ACGiItF6_wGYtYrXctIy-20" value="Data&lt;div&gt;updated&lt;/div&gt;" style="edgeLabel;html=1;align=center;verticalAlign=middle;resizable=0;points=[];" vertex="1" connectable="0" parent="ACGiItF6_wGYtYrXctIy-11">
          <mxGeometry x="-0.5388" y="-8" relative="1" as="geometry">
            <mxPoint as="offset" />
          </mxGeometry>
        </mxCell>
        <mxCell id="ACGiItF6_wGYtYrXctIy-12" value="" style="endArrow=classic;html=1;rounded=0;exitX=1;exitY=0.5;exitDx=0;exitDy=0;entryX=0;entryY=0.5;entryDx=0;entryDy=0;" edge="1" parent="1" source="ACGiItF6_wGYtYrXctIy-4" target="ACGiItF6_wGYtYrXctIy-1">
          <mxGeometry width="50" height="50" relative="1" as="geometry">
            <mxPoint x="670" y="470" as="sourcePoint" />
            <mxPoint x="720" y="420" as="targetPoint" />
          </mxGeometry>
        </mxCell>
        <mxCell id="ACGiItF6_wGYtYrXctIy-15" value="Sensors&lt;div&gt;Disabled&lt;/div&gt;" style="edgeLabel;html=1;align=center;verticalAlign=middle;resizable=0;points=[];" vertex="1" connectable="0" parent="ACGiItF6_wGYtYrXctIy-12">
          <mxGeometry x="-0.2311" relative="1" as="geometry">
            <mxPoint as="offset" />
          </mxGeometry>
        </mxCell>
      </root>
    </mxGraphModel>
  </diagram>
</mxfile>
